<?xml version="1.0" encoding="UTF-8"?>
<svg width="662px" height="280px" viewBox="0 0 662 280" version="1.1" xmlns="http://www.w3.org/2000/svg" xmlns:xlink="http://www.w3.org/1999/xlink">
    <!-- Generator: Sketch 56.3 (81716) - https://sketch.com -->
    <title>neto-logo</title>
    <desc>Created with Sketch.</desc>
    <g id="Page-1" stroke="none" stroke-width="1" fill="none" fill-rule="evenodd">
        <g id="neto-logo" transform="translate(0.000000, 16.000000)" fill="#65C6F1" fill-rule="nonzero">
            <g id="Group" transform="translate(330.733325, 124.760000) scale(-1, 1) rotate(-180.000000) translate(-330.733325, -124.760000) translate(0.000000, 0.893336)">
                <path d="M87.1863978,191.394662 C76.7603981,191.394662 66.4963983,189.582662 56.9775986,185.255995 C51.4431987,182.725329 46.4193322,179.393329 41.8661323,175.487996 L41.8661323,181.445329 C41.8661323,192.502662 33.8145325,190.443995 20.6311995,190.443995 C7.49218648,190.443995 -3.78956116e-15,192.349329 -3.78956116e-15,181.410662 L-3.78956116e-15,9.07343977 C-3.78956116e-15,-1.4562533 7.49687981,0.340103991 20.2291995,0.345311991 C32.9754658,0.345311991 43.1614656,-1.36822663 43.1614656,8.84270645 L43.1614656,84.5947979 C43.1614656,99.8895975 44.4911989,122.54373 53.3963987,135.65333 C60.6035985,146.21333 71.7702649,149.66933 84.2030646,149.66933 C95.2963976,149.66933 106.173997,146.999996 113.229197,137.863997 C121.26093,127.461997 122.825997,111.034931 122.825997,98.3879975 L122.825997,9.14687977 C122.825997,-0.983854642 130.906797,0.340103991 143.815996,0.340103991 C157.430663,0.340103991 166.158663,-1.31874663 166.158663,9.60521309 L166.158663,105.506797 C166.158663,128.146397 161.473329,151.563996 145.77333,168.813329 C130.475063,185.545329 109.368264,191.394662 87.1863978,191.394662" id="Path"></path>
                <path d="M460.101322,190.967995 L439.573322,190.967995 L439.573322,236.149327 C439.573322,245.310661 434.043989,247.623994 418.073323,247.623994 C402.10799,247.623994 396.578657,245.078661 396.578657,236.149327 L396.578657,190.967995 L371.398657,190.967995 C364.235991,190.967995 364.455991,183.037329 364.455991,172.599996 C364.455991,161.597329 363.538658,150.398663 371.669324,150.398663 L396.578657,150.398663 L396.578657,8.1494798 C396.578657,-1.18958397 406.866656,0.282811993 418.750656,0.282811993 C431.619989,0.282811993 439.573322,-1.65729329 439.573322,8.41458646 L439.573322,150.403996 L461.027988,150.403996 C470.247988,150.403996 470.552016,156.773329 470.552016,170.291996 C470.552016,184.951995 470.645322,190.967995 460.101322,190.967995" id="Path"></path>
                <path d="M351.341325,90.5051977 C346.611991,91.9187977 341.789325,91.3811977 337.451992,89.0478644 C333.099992,86.7093312 330.047992,83.0625313 328.614658,78.3213314 C326.823992,72.7734648 324.273325,67.554665 321.025325,62.7505318 C317.777325,57.9463986 318.993325,59.8759985 317.885325,58.5026652 C312.963992,52.3931987 306.835992,47.5291988 299.931993,43.8119989 C293.662659,40.4401323 286.906659,38.205199 279.835993,37.2947991 C272.96666,36.4093324 266.023993,36.6103991 259.249327,38.0478657 C252.511994,39.4854657 246.119994,42.0895989 240.246661,45.6682655 C223.903994,55.6374653 212.054661,79.0802647 212.550661,98.0229309 C213.286661,125.979197 235.487994,150.962663 263.423993,154.407996 C266.069327,154.733329 268.727993,154.885329 271.38666,154.870663 C271.33866,154.881329 271.289327,154.885329 271.239993,154.890663 C270.881327,154.950663 270.523993,154.994663 270.165327,155.042663 C270.253327,155.027996 270.337327,155.027996 270.425327,155.014663 C270.695993,154.978663 270.965327,154.934663 271.239993,154.890663 C271.289327,154.885329 271.33866,154.881329 271.38666,154.870663 C271.397327,154.875996 271.411993,154.875996 271.421327,154.870663 C285.75866,154.777329 300.035992,149.755996 310.966659,140.407996 L312.531992,139.078663 L310.726659,138.08933 C288.515993,125.910397 266.279993,113.765064 244.073327,101.581197 C239.195994,98.9041309 235.271994,94.8078643 233.695994,89.4078644 C232.759994,86.2026645 232.778661,82.7469313 233.691994,79.5469313 C234.063994,78.2374647 234.589327,76.9625314 235.261327,75.7718648 C237.611994,71.5921315 241.522661,68.6041316 246.182661,67.4317316 C251.85466,66.0145317 257.727994,67.490665 262.751993,70.2426649 L348.613325,117.22653 C352.833325,119.50053 355.727991,123.163597 357.434658,127.589063 C363.337324,142.87333 338.682658,164.973329 330.322658,171.307996 C320.931992,178.426662 310.549326,183.570662 299.735993,186.799995 L299.735993,186.794662 C263.183993,197.709328 221.719994,186.613329 197.006662,155.042663 C181.689329,135.494663 174.167996,111.280264 176.478662,86.5135978 C177.661329,73.8067982 181.561329,61.6718651 187.635995,50.4587987 C193.861328,38.9530657 202.065328,28.7437326 212.378661,20.6265328 C222.082661,12.9906263 233.019994,7.27083982 244.926661,3.9229199 C256.70266,0.610417318 268.889327,-0.364062658 281.047993,0.885417311 C293.741326,2.18541328 305.863992,6.12811985 317.075992,12.158853 C328.286658,18.1895995 338.819992,25.7453327 347.239991,35.3401324 C355.477324,44.7385322 360.761324,55.9426653 363.681324,68.0573316 C365.005324,72.6895982 364.441324,77.4546647 362.150658,81.689598 C359.794658,86.0401312 356.101324,89.0879978 351.341325,90.5051977" id="Path"></path>
                <path d="M653.597317,132.840663 C648.547984,144.138663 641.601317,154.417329 632.838651,163.185329 C624.090651,171.887996 613.879985,178.834662 602.599985,183.870662 C594.681318,187.394662 586.399985,189.733329 577.901319,190.850662 C578.986652,190.417329 577.818652,190.865329 577.901319,190.850662 C577.798652,190.894662 577.695986,190.939995 577.591986,190.978662 C573.770652,191.475995 569.903986,191.722662 566.003986,191.722662 L565.855986,191.722662 L565.733319,191.717329 C552.599986,191.214662 539.715987,188.502662 527.655987,183.245329 C516.306654,178.282662 505.901321,171.454662 497.137321,162.702663 C488.449321,154.047996 481.687988,143.862663 476.889321,132.60413 C471.835988,120.853597 469.499988,108.319731 469.499988,95.5546643 C469.499988,82.4650646 471.835988,69.5879983 477.090655,57.5505319 C481.953321,46.2239988 488.905321,36.0041324 497.779988,27.4135993 C506.558654,18.8973329 516.831987,12.2760397 528.155987,7.62395981 C538.44532,3.38125325 549.29732,1.11614531 560.366653,0.604166652 C560.509319,0.629166651 563.830653,0.580207985 565.350653,0.580207985 C578.347986,0.580207985 591.129319,2.98645326 603.075985,8.11614646 C614.449318,13.0239597 624.698651,19.9119995 633.422651,28.6931993 C642.042651,37.4265324 648.867984,47.6265321 653.793317,58.8505319 C658.905317,70.4786649 661.369317,82.8693313 661.369317,95.5505309 C661.369317,108.447864 658.84265,121.040664 653.597317,132.840663 L653.597317,132.840663 Z M613.698651,61.0265318 C611.849318,58.4770652 609.798651,56.0639986 607.535985,53.814532 C602.021318,48.3562655 595.594652,44.1171989 588.445319,41.098399 C581.105319,37.9879991 573.265319,36.4863991 565.291986,36.4863991 C557.353319,36.4863991 549.635986,37.9478657 542.335986,41.0838656 C535.22132,44.1119989 528.85332,48.3598655 523.37732,53.814532 C517.926654,59.2437319 513.65732,65.6145317 510.630654,72.6745315 C507.461321,79.9254647 505.969321,87.6587978 505.969321,95.5598643 C505.969321,103.530664 507.519987,111.313597 510.625321,118.663064 C513.65332,125.76613 517.911987,132.20053 523.37732,137.674663 C528.85332,143.123996 535.22132,147.37733 542.335986,150.40533 C548.251986,152.94533 554.449319,154.387996 560.813319,154.839996 C559.017319,154.983996 559.119986,155.002663 560.954653,154.850663 C560.906653,154.850663 560.861319,154.845329 560.813319,154.839996 C560.857319,154.835996 563.825319,154.978663 565.282653,154.978663 C573.250652,154.978663 581.085319,153.481329 588.425319,150.370663 C595.574652,147.35333 601.997318,143.114663 607.515985,137.654663 C612.977318,132.185997 617.241318,125.751597 620.267984,118.647864 C623.369318,111.302664 624.861318,103.519731 624.861318,95.5546643 C624.861318,87.6546645 623.433318,79.9306647 620.263984,72.6745315 C618.506651,68.5827983 616.338651,64.7281317 613.762651,61.1494651 C613.742651,61.1103985 613.718651,61.0707985 613.698651,61.0265318 C613.727985,61.0707985 613.757318,61.1103985 613.786651,61.1494651 L613.698651,61.0265318 Z" id="Shape"></path>
            </g>
        </g>
    </g>
    
</svg>